<?xml version="1.0" encoding="utf-8"?>
<!-- Generator: Adobe Illustrator 25.3.0, SVG Export Plug-In . SVG Version: 6.00 Build 0)  -->
<svg version="1.1" xmlns="http://www.w3.org/2000/svg" xmlns:xlink="http://www.w3.org/1999/xlink" x="0px" y="0px"
	 viewBox="0 0 750 500" style="enable-background:new 0 0 750 500;" xml:space="preserve">
<style type="text/css">
	.st0{fill:#FFFFFF;}
	.st1{fill:none;stroke:#00559F;stroke-linecap:round;stroke-linejoin:round;stroke-miterlimit:10;}
	.st2{fill:#00559F;}
	.st3{fill:#FFFFFF;stroke:#00559F;stroke-linecap:round;stroke-linejoin:round;stroke-miterlimit:10;}
	.st4{fill:#FFFFFF;stroke:#00559F;stroke-miterlimit:10;}
</style>
<g id="BACKGROUND">
</g>
<g id="OBJECT">
	<g>
		<g>
			<polygon class="st0" points="324.2,251.8 324.2,404.1 262.4,404.1 262.4,251.8 268.3,251.8 268.3,243.4 271.4,243.4 271.4,251.8 
				277.6,251.8 277.6,243.4 280.8,243.4 280.8,251.8 287,251.8 287,243.4 290.1,243.4 290.1,251.8 296.3,251.8 296.3,243.4 
				299.4,243.4 299.4,251.8 305.6,251.8 305.6,243.4 308.7,243.4 308.7,251.8 314.9,251.8 314.9,243.4 318.1,243.4 318.1,251.8 			
				"/>
			<polygon class="st1" points="324.2,251.8 324.2,404.1 262.4,404.1 262.4,251.8 268.3,251.8 268.3,243.4 271.4,243.4 271.4,251.8 
				277.6,251.8 277.6,243.4 280.8,243.4 280.8,251.8 287,251.8 287,243.4 290.1,243.4 290.1,251.8 296.3,251.8 296.3,243.4 
				299.4,243.4 299.4,251.8 305.6,251.8 305.6,243.4 308.7,243.4 308.7,251.8 314.9,251.8 314.9,243.4 318.1,243.4 318.1,251.8 			
				"/>
			<rect x="268.3" y="243.4" class="st1" width="3.1" height="160.7"/>
			<rect x="277.6" y="243.4" class="st1" width="3.1" height="160.7"/>
			<rect x="287" y="243.4" class="st1" width="3.1" height="160.7"/>
			<rect x="296.3" y="243.4" class="st1" width="3.1" height="160.7"/>
			<rect x="305.6" y="243.4" class="st1" width="3.1" height="160.7"/>
			<rect x="314.9" y="243.4" class="st1" width="3.1" height="160.7"/>
			<line class="st1" x1="277.6" y1="256.3" x2="271.4" y2="256.3"/>
			<line class="st1" x1="296.3" y1="256.3" x2="290.1" y2="256.3"/>
			<line class="st1" x1="314.9" y1="256.3" x2="308.8" y2="256.3"/>
			<line class="st1" x1="324.2" y1="256.3" x2="318.1" y2="256.3"/>
			<line class="st1" x1="305.6" y1="256.3" x2="299.4" y2="256.3"/>
			<line class="st1" x1="287" y1="256.3" x2="280.8" y2="256.3"/>
			<line class="st1" x1="268.3" y1="256.3" x2="262.4" y2="256.3"/>
		</g>
		<g>
			<g>
				<polygon class="st0" points="60.4,259.5 60.4,402.4 9,402.4 9,259.5 11.2,259.5 11.2,248.5 14.6,248.5 14.6,240.5 54.8,240.5 
					54.8,248.5 58.2,248.5 58.2,259.5 				"/>
			</g>
			<g>
				<rect x="9" y="259.5" class="st1" width="51.4" height="142.9"/>
				<rect x="11.2" y="248.5" class="st1" width="47" height="11"/>
				<rect x="14.6" y="240.5" class="st1" width="40.2" height="8"/>
				<line class="st1" x1="12.7" y1="263.1" x2="58.1" y2="263.1"/>
				<line class="st1" x1="12.7" y1="266.4" x2="58.1" y2="266.4"/>
				<line class="st1" x1="12.7" y1="269.6" x2="58.1" y2="269.6"/>
				<line class="st1" x1="12.7" y1="272.9" x2="58.1" y2="272.9"/>
				<line class="st1" x1="12.7" y1="276.2" x2="58.1" y2="276.2"/>
				<line class="st1" x1="12.7" y1="279.4" x2="58.1" y2="279.4"/>
				<line class="st1" x1="12.7" y1="282.7" x2="58.1" y2="282.7"/>
				<line class="st1" x1="12.7" y1="292.5" x2="58.1" y2="292.5"/>
				<line class="st1" x1="12.7" y1="295.8" x2="58.1" y2="295.8"/>
				<line class="st1" x1="12.7" y1="299.1" x2="58.1" y2="299.1"/>
				<line class="st1" x1="12.7" y1="302.3" x2="58.1" y2="302.3"/>
				<line class="st1" x1="12.7" y1="305.6" x2="58.1" y2="305.6"/>
				<line class="st1" x1="12.7" y1="308.9" x2="58.1" y2="308.9"/>
				<line class="st1" x1="12.7" y1="312.2" x2="58.1" y2="312.2"/>
				<line class="st1" x1="12.7" y1="315.4" x2="58.1" y2="315.4"/>
				<line class="st1" x1="12.7" y1="318.7" x2="58.1" y2="318.7"/>
				<line class="st1" x1="12.7" y1="322" x2="58.1" y2="322"/>
				<line class="st1" x1="12.7" y1="325.2" x2="58.1" y2="325.2"/>
				<line class="st1" x1="12.7" y1="328.5" x2="58.1" y2="328.5"/>
				<line class="st1" x1="12.7" y1="331.8" x2="58.1" y2="331.8"/>
				<line class="st1" x1="12.7" y1="335" x2="58.1" y2="335"/>
				<line class="st1" x1="12.7" y1="338.3" x2="58.1" y2="338.3"/>
				<line class="st1" x1="12.7" y1="341.6" x2="58.1" y2="341.6"/>
				<line class="st1" x1="12.7" y1="344.9" x2="58.1" y2="344.9"/>
				<line class="st1" x1="12.7" y1="348.1" x2="58.1" y2="348.1"/>
				<line class="st1" x1="12.7" y1="351.4" x2="58.1" y2="351.4"/>
				<line class="st1" x1="12.7" y1="361.2" x2="58.1" y2="361.2"/>
				<line class="st1" x1="12.7" y1="364.5" x2="58.1" y2="364.5"/>
				<line class="st1" x1="12.7" y1="367.8" x2="58.1" y2="367.8"/>
				<line class="st1" x1="12.7" y1="371" x2="58.1" y2="371"/>
				<line class="st1" x1="12.7" y1="374.3" x2="58.1" y2="374.3"/>
				<line class="st1" x1="12.7" y1="377.6" x2="58.1" y2="377.6"/>
				<line class="st1" x1="12.7" y1="380.8" x2="58.1" y2="380.8"/>
				<line class="st1" x1="12.7" y1="384.1" x2="58.1" y2="384.1"/>
				<rect x="12.7" y="389.7" class="st2" width="8.6" height="10.5"/>
				<rect x="25" y="389.7" class="st2" width="8.6" height="10.5"/>
				<rect x="37.3" y="389.7" class="st2" width="8.6" height="10.5"/>
				<rect x="49.5" y="389.7" class="st2" width="8.6" height="10.5"/>
				<rect x="14.8" y="251.1" class="st2" width="7.8" height="5.8"/>
				<rect x="25.9" y="251.1" class="st2" width="7.8" height="5.8"/>
				<rect x="37.1" y="251.1" class="st2" width="7.8" height="5.8"/>
				<rect x="48.2" y="251.1" class="st2" width="7.8" height="5.8"/>
				<line class="st1" x1="12.7" y1="387.4" x2="58.1" y2="387.4"/>
			</g>
		</g>
		<g>
			<g>
				<polygon class="st0" points="69.5,404.1 69.5,278.1 106.1,278.1 106.1,283.9 125.9,283.9 125.9,275.6 195.5,275.6 195.5,404.1 
									"/>
			</g>
			<g>
				<polygon class="st1" points="69.5,404.1 69.5,278.1 106.1,278.1 106.1,283.9 125.9,283.9 125.9,275.6 195.5,275.6 195.5,404.1 
									"/>
				<rect x="171.4" y="279.1" class="st2" width="17.3" height="7.3"/>
				<line class="st1" x1="138.7" y1="289.6" x2="193" y2="289.6"/>
				<line class="st1" x1="138.7" y1="292.5" x2="193" y2="292.5"/>
				<line class="st1" x1="138.7" y1="295.4" x2="193" y2="295.4"/>
				<line class="st1" x1="138.7" y1="298.3" x2="193" y2="298.3"/>
				<line class="st1" x1="165.9" y1="301.2" x2="193" y2="301.2"/>
				<line class="st1" x1="165.9" y1="304.1" x2="193" y2="304.1"/>
				<line class="st1" x1="165.9" y1="306.9" x2="193" y2="306.9"/>
				<line class="st1" x1="165.9" y1="309.8" x2="193" y2="309.8"/>
				<line class="st1" x1="165.9" y1="312.7" x2="193" y2="312.7"/>
				<line class="st1" x1="165.9" y1="315.6" x2="193" y2="315.6"/>
				<line class="st1" x1="165.9" y1="318.5" x2="193" y2="318.5"/>
				<line class="st1" x1="165.9" y1="321.4" x2="193" y2="321.4"/>
				<line class="st1" x1="165.9" y1="324.3" x2="193" y2="324.3"/>
				<line class="st1" x1="165.9" y1="327.1" x2="193" y2="327.1"/>
				<line class="st1" x1="165.9" y1="330" x2="193" y2="330"/>
				<line class="st1" x1="165.9" y1="332.9" x2="193" y2="332.9"/>
				<line class="st1" x1="165.9" y1="335.8" x2="193" y2="335.8"/>
				<line class="st1" x1="165.9" y1="338.7" x2="193" y2="338.7"/>
				<line class="st1" x1="165.9" y1="341.6" x2="193" y2="341.6"/>
				<line class="st1" x1="165.9" y1="344.5" x2="193" y2="344.5"/>
				<line class="st1" x1="165.9" y1="347.3" x2="193" y2="347.3"/>
				<line class="st1" x1="165.9" y1="350.2" x2="193" y2="350.2"/>
				<line class="st1" x1="165.9" y1="353.1" x2="193" y2="353.1"/>
				<line class="st1" x1="165.9" y1="356" x2="193" y2="356"/>
				<line class="st1" x1="165.9" y1="358.9" x2="193" y2="358.9"/>
				<line class="st1" x1="165.9" y1="361.8" x2="193" y2="361.8"/>
				<line class="st1" x1="165.9" y1="364.7" x2="193" y2="364.7"/>
				<line class="st1" x1="165.9" y1="367.5" x2="193" y2="367.5"/>
				<line class="st1" x1="165.9" y1="370.4" x2="193" y2="370.4"/>
				<line class="st1" x1="165.9" y1="373.3" x2="193" y2="373.3"/>
				<line class="st1" x1="165.9" y1="376.2" x2="193" y2="376.2"/>
				<line class="st1" x1="165.9" y1="379.1" x2="193" y2="379.1"/>
				<line class="st1" x1="165.9" y1="382" x2="193" y2="382"/>
				<line class="st1" x1="165.9" y1="384.9" x2="193" y2="384.9"/>
				<line class="st1" x1="165.9" y1="387.7" x2="193" y2="387.7"/>
				<line class="st1" x1="165.9" y1="390.6" x2="193" y2="390.6"/>
				<line class="st1" x1="165.9" y1="393.5" x2="193" y2="393.5"/>
				<line class="st1" x1="143.5" y1="305.4" x2="143.5" y2="400.3"/>
				<rect x="139.3" y="384.1" class="st2" width="23.3" height="4.5"/>
				<rect x="139.3" y="301.2" class="st2" width="23.3" height="5.8"/>
				<g>
					<line class="st1" x1="80.9" y1="289.6" x2="80.9" y2="400.3"/>
					<line class="st1" x1="88.7" y1="289.6" x2="88.7" y2="400.3"/>
					<line class="st1" x1="96.4" y1="289.6" x2="96.4" y2="400.3"/>
					<line class="st1" x1="104.2" y1="289.6" x2="104.2" y2="400.3"/>
					<line class="st1" x1="112" y1="289.6" x2="112" y2="400.3"/>
					<line class="st1" x1="119.8" y1="289.6" x2="119.8" y2="400.3"/>
					<line class="st1" x1="127.6" y1="289.6" x2="127.6" y2="400.3"/>
				</g>
				<rect x="73.2" y="289.6" class="st1" width="62" height="110.7"/>
			</g>
		</g>
		<g>
			<path class="st0" d="M389.6,209.8v194.3h-45.3V246.5h0C345,227.8,364.4,212.4,389.6,209.8z"/>
			<g>
				<path class="st1" d="M389.6,209.8v36.7h-45.2C345,227.8,364.4,212.4,389.6,209.8z"/>
				<line class="st1" x1="384.3" y1="246.5" x2="384.3" y2="210.6"/>
				<line class="st1" x1="379.4" y1="246.5" x2="379.4" y2="211.6"/>
				<line class="st1" x1="374.5" y1="246.5" x2="374.5" y2="213.1"/>
				<line class="st1" x1="369.6" y1="246.5" x2="369.6" y2="215"/>
				<line class="st1" x1="364.7" y1="246.5" x2="364.7" y2="217.4"/>
				<line class="st1" x1="359.8" y1="246.5" x2="359.8" y2="220.5"/>
				<line class="st1" x1="355" y1="246.5" x2="355" y2="224.6"/>
				<line class="st1" x1="350.1" y1="246.5" x2="350.1" y2="230.2"/>
				<rect x="344.3" y="246.5" class="st1" width="45.3" height="157.5"/>
				<g>
					<line class="st1" x1="350.1" y1="250.8" x2="385.7" y2="250.8"/>
					<line class="st1" x1="350.1" y1="255.6" x2="385.7" y2="255.6"/>
					<line class="st1" x1="350.1" y1="260.3" x2="385.7" y2="260.3"/>
					<line class="st1" x1="350.1" y1="265" x2="385.7" y2="265"/>
					<line class="st1" x1="350.1" y1="269.8" x2="385.7" y2="269.8"/>
					<line class="st1" x1="350.1" y1="274.5" x2="385.7" y2="274.5"/>
					<line class="st1" x1="350.1" y1="279.2" x2="385.7" y2="279.2"/>
					<line class="st1" x1="350.1" y1="284" x2="385.7" y2="284"/>
					<line class="st1" x1="350.1" y1="288.7" x2="385.7" y2="288.7"/>
					<line class="st1" x1="350.1" y1="293.4" x2="385.7" y2="293.4"/>
					<line class="st1" x1="350.1" y1="298.2" x2="385.7" y2="298.2"/>
					<line class="st1" x1="350.1" y1="302.9" x2="385.7" y2="302.9"/>
					<line class="st1" x1="350.1" y1="307.6" x2="385.7" y2="307.6"/>
					<line class="st1" x1="350.1" y1="312.4" x2="385.7" y2="312.4"/>
					<line class="st1" x1="350.1" y1="317.1" x2="385.7" y2="317.1"/>
					<line class="st1" x1="350.1" y1="321.8" x2="385.7" y2="321.8"/>
					<line class="st1" x1="350.1" y1="326.6" x2="385.7" y2="326.6"/>
					<line class="st1" x1="350.1" y1="331.3" x2="385.7" y2="331.3"/>
					<line class="st1" x1="350.1" y1="336" x2="385.7" y2="336"/>
					<line class="st1" x1="350.1" y1="340.8" x2="385.7" y2="340.8"/>
					<line class="st1" x1="350.1" y1="345.5" x2="385.7" y2="345.5"/>
					<line class="st1" x1="350.1" y1="350.2" x2="385.7" y2="350.2"/>
					<line class="st1" x1="350.1" y1="355" x2="385.7" y2="355"/>
					<line class="st1" x1="350.1" y1="359.7" x2="385.7" y2="359.7"/>
					<line class="st1" x1="350.1" y1="364.4" x2="385.7" y2="364.4"/>
					<line class="st1" x1="350.1" y1="369.2" x2="385.7" y2="369.2"/>
					<line class="st1" x1="350.1" y1="373.9" x2="385.7" y2="373.9"/>
					<line class="st1" x1="350.1" y1="378.6" x2="385.7" y2="378.6"/>
					<line class="st1" x1="350.1" y1="383.4" x2="385.7" y2="383.4"/>
					<line class="st1" x1="350.1" y1="388.1" x2="385.7" y2="388.1"/>
					<line class="st1" x1="350.1" y1="392.8" x2="385.7" y2="392.8"/>
					<line class="st1" x1="350.1" y1="397.6" x2="385.7" y2="397.6"/>
				</g>
			</g>
		</g>
		<rect y="404.1" class="st3" width="430.8" height="11.8"/>
		<rect x="609" y="404.1" class="st3" width="141" height="11.8"/>
		<g>
			<polygon class="st3" points="222,303.9 222,404.1 172.5,404.1 172.5,339.4 206.5,268.1 215,268.1 215,253.2 216.8,253.2 
				216.8,303.9 			"/>
			<g>
				<polygon class="st1" points="222,303.9 222,404.1 172.5,404.1 172.5,339.4 206.5,268.1 215,268.1 215,253.2 216.8,253.2 
					216.8,303.9 				"/>
				<rect x="206.5" y="313.6" class="st1" width="8.5" height="6.1"/>
				<rect x="206.5" y="322.6" class="st1" width="8.5" height="6.1"/>
				<rect x="206.5" y="331.5" class="st1" width="8.5" height="6.1"/>
				<rect x="206.5" y="340.5" class="st1" width="8.5" height="6.1"/>
				<rect x="206.5" y="349.4" class="st1" width="8.5" height="6.1"/>
				<rect x="206.5" y="358.4" class="st1" width="8.5" height="6.1"/>
				<rect x="206.5" y="367.3" class="st1" width="8.5" height="6.1"/>
				<rect x="206.5" y="376.3" class="st1" width="8.5" height="6.1"/>
				<rect x="206.5" y="385.3" class="st1" width="8.5" height="6.1"/>
				<rect x="206.5" y="394.2" class="st1" width="8.5" height="6.1"/>
				<rect x="201.2" y="394.2" class="st1" width="3.1" height="6.1"/>
				<rect x="195.9" y="394.2" class="st1" width="3.1" height="6.1"/>
				<rect x="190.5" y="394.2" class="st1" width="3.1" height="6.1"/>
				<rect x="185.1" y="394.2" class="st1" width="3.1" height="6.1"/>
				<rect x="179.8" y="394.2" class="st1" width="3.1" height="6.1"/>
				<rect x="174.4" y="394.2" class="st1" width="3.1" height="6.1"/>
				<rect x="201.2" y="385.3" class="st1" width="3.1" height="6.1"/>
				<rect x="195.9" y="385.3" class="st1" width="3.1" height="6.1"/>
				<rect x="190.5" y="385.3" class="st1" width="3.1" height="6.1"/>
				<rect x="185.1" y="385.3" class="st1" width="3.1" height="6.1"/>
				<rect x="179.8" y="385.3" class="st1" width="3.1" height="6.1"/>
				<rect x="174.4" y="385.3" class="st1" width="3.1" height="6.1"/>
				<rect x="201.2" y="376.3" class="st1" width="3.1" height="6.1"/>
				<rect x="195.9" y="376.3" class="st1" width="3.1" height="6.1"/>
				<rect x="190.5" y="376.3" class="st1" width="3.1" height="6.1"/>
				<rect x="185.1" y="376.3" class="st1" width="3.1" height="6.1"/>
				<rect x="179.8" y="376.3" class="st1" width="3.1" height="6.1"/>
				<rect x="174.4" y="376.3" class="st1" width="3.1" height="6.1"/>
				<rect x="201.2" y="367.3" class="st1" width="3.1" height="6.1"/>
				<rect x="195.9" y="367.3" class="st1" width="3.1" height="6.1"/>
				<rect x="190.5" y="367.3" class="st1" width="3.1" height="6.1"/>
				<rect x="185.1" y="367.3" class="st1" width="3.1" height="6.1"/>
				<rect x="179.8" y="367.3" class="st1" width="3.1" height="6.1"/>
				<rect x="174.4" y="367.3" class="st1" width="3.1" height="6.1"/>
				<rect x="201.2" y="358.4" class="st1" width="3.1" height="6.1"/>
				<rect x="195.9" y="358.4" class="st1" width="3.1" height="6.1"/>
				<rect x="190.5" y="358.4" class="st1" width="3.1" height="6.1"/>
				<rect x="185.1" y="358.4" class="st1" width="3.1" height="6.1"/>
				<rect x="179.8" y="358.4" class="st1" width="3.1" height="6.1"/>
				<rect x="174.4" y="358.4" class="st1" width="3.1" height="6.1"/>
				<rect x="201.2" y="349.4" class="st1" width="3.1" height="6.1"/>
				<rect x="195.9" y="349.4" class="st1" width="3.1" height="6.1"/>
				<rect x="190.5" y="349.4" class="st1" width="3.1" height="6.1"/>
				<rect x="185.1" y="349.4" class="st1" width="3.1" height="6.1"/>
				<rect x="179.8" y="349.4" class="st1" width="3.1" height="6.1"/>
				<rect x="174.4" y="349.4" class="st1" width="3.1" height="6.1"/>
				<rect x="201.2" y="340.5" class="st1" width="3.1" height="6.1"/>
				<rect x="195.9" y="340.5" class="st1" width="3.1" height="6.1"/>
				<rect x="190.5" y="340.5" class="st1" width="3.1" height="6.1"/>
				<rect x="185.1" y="340.5" class="st1" width="3.1" height="6.1"/>
				<rect x="179.8" y="340.5" class="st1" width="3.1" height="6.1"/>
				<rect x="174.4" y="340.5" class="st1" width="3.1" height="6.1"/>
				<rect x="201.2" y="331.5" class="st1" width="3.1" height="6.1"/>
				<rect x="195.9" y="331.5" class="st1" width="3.1" height="6.1"/>
				<rect x="190.5" y="331.5" class="st1" width="3.1" height="6.1"/>
				<rect x="185.1" y="331.5" class="st1" width="3.1" height="6.1"/>
				<rect x="179.8" y="331.5" class="st1" width="3.1" height="6.1"/>
				<rect x="201.2" y="322.6" class="st1" width="3.1" height="6.1"/>
				<rect x="195.9" y="322.6" class="st1" width="3.1" height="6.1"/>
				<rect x="190.5" y="322.6" class="st1" width="3.1" height="6.1"/>
				<rect x="185.1" y="322.6" class="st1" width="3.1" height="6.1"/>
				<rect x="201.2" y="313.6" class="st1" width="3.1" height="6.1"/>
				<rect x="195.9" y="313.6" class="st1" width="3.1" height="6.1"/>
				<rect x="190.5" y="313.6" class="st1" width="3.1" height="6.1"/>
				<polyline class="st1" points="186.2,310.6 216.8,310.6 216.8,303.9 				"/>
				<line class="st1" x1="216.8" y1="296" x2="193.6" y2="296"/>
				<line class="st1" x1="216.8" y1="305.6" x2="189.4" y2="305.6"/>
				<line class="st1" x1="216.8" y1="286.5" x2="197.7" y2="286.5"/>
				<line class="st1" x1="216.8" y1="277" x2="202.2" y2="277"/>
				<line class="st1" x1="216.8" y1="277" x2="207.3" y2="286.5"/>
				<line class="st1" x1="216.8" y1="267.4" x2="207.3" y2="277"/>
				<line class="st1" x1="216.8" y1="286.5" x2="207.3" y2="296"/>
				<line class="st1" x1="216.8" y1="296" x2="207.3" y2="305.6"/>
				<line class="st1" x1="207" y1="277" x2="198.4" y2="285.6"/>
				<line class="st1" x1="207" y1="286.5" x2="197.5" y2="296"/>
				<line class="st1" x1="207" y1="296" x2="197.5" y2="305.6"/>
				<line class="st1" x1="196.8" y1="296" x2="189.8" y2="303"/>
			</g>
		</g>
		<g>
			<path class="st0" d="M391.8,399.6v4.1c-89.1-1.3-178.1,1.3-267.2,0v-5.1c13-4.7,26-9.3,39-14H191c-0.3-0.3-0.4-0.4-0.4-0.4
				c0.1-5.9,1.4-24.4,15.5-38c3.7-3.5,7.5-6,11-7.8c2.3,0.9,5.3,2.2,8.5,4.4c3.1,2.2,5.4,4.5,7,6.4l0.1,0.7c1.5-2.7,3.2-5.1,4.7-7.4
				c4.1-6.2,11.2-15.3,22.9-23.9c0.1-0.2,0.3-0.4,0.5-0.6c-0.2,3.7-0.1,8.5,1,13.9c0.6,3.1,1.5,5.9,2.4,8.2l-0.3,0.4
				c2.1-0.8,4.1-1.4,5.9-1.8l0.1-0.4c2.8-4,7-8.9,12.9-13.6c10.6-8.4,21.5-11.4,27.8-12.7c0,0,0.1,0,0.1,0c0,0,0,0.1-0.1,0.1
				c0.2-0.2,0.4-0.4,0.6-0.6c-0.2,1-0.5,2.2-0.7,3.4c0.2,6.3,1.1,20.2,1.1,20.2l0,0.1c9.7-4.4,18.4-4.1,22-3.8
				c-0.3,2.4-0.5,5.2-0.3,8.3c0.1,1.7,0.6,4.8,0.8,6.2c0.5-0.2,1-0.4,1.6-0.6c12.3-4.3,23.2-3.5,29.1-2.5c-1.7,4-3.6,9.5-4.6,16.1
				c-1,6.5-0.9,12.1-0.6,16.4l14.2,0.1v9.8h7.1v14.1H391.8z"/>
			<g>
				<path class="st1" d="M124.6,403.7v-5.1c13-4.7,26-9.3,39-14h72.1c5.6-3,11.3-5.9,16.9-8.9h120.9v9.8h7.1v14.1h11.2v4.1H124.6z"
					/>
				<path class="st1" d="M359.4,375.6c-0.4-4.3-0.5-9.9,0.6-16.4c1.1-6.7,2.9-12.1,4.7-16.1c-5.8,3.1-13.2,7.7-20.8,14.4
					c-7.2,6.5-12.5,13-16.1,18.2"/>
				<path class="st1" d="M301.4,375.7c2.5-4.7,12.5-22.5,34.1-30.1c12.3-4.3,23.2-3.5,29.1-2.5"/>
				<path class="st1" d="M334,346.2c-0.3-1.5-0.7-4.5-0.8-6.2c-0.2-3.2,0-6,0.3-8.3c-5.6,4.2-13.1,10.8-20.1,20.5
					c-6.4,8.9-10.1,17.3-12.3,23.6"/>
				<path class="st1" d="M327,349.4c0,0-1.8-4.6-6.4-6.2"/>
				<path class="st1" d="M259.6,375.4c0,0,14.8-18.4,29.6-24.6c0,0,4.1,5.4,7.2,12.5c3.1,7.1,4.7,12.4,4.7,12.4"/>
				<path class="st1" d="M289.2,350.8c-4.9-0.3-12.1-0.1-20.1,2.9c-19.2,7.2-27.3,24.6-29.1,28.7"/>
				<path class="st1" d="M333.4,331.6c-4-0.3-14.2-0.7-25,5.2c-10.1,5.5-15.2,13.3-17.2,16.8"/>
				<path class="st1" d="M311.4,335.3c-0.8-2.9-1.6-6.7-1.7-11.2c-0.2-5.1,0.5-9.3,1.3-12.4c-5.1,4.4-11.6,11-17.5,20.2
					c-4.4,6.9-7.3,13.3-9.2,18.7"/>
				<path class="st1" d="M269.7,338.4c2.8-4,7-8.9,12.9-13.6c10.7-8.4,21.5-11.5,27.9-12.7"/>
				<path class="st1" d="M279.3,350.6c-0.6-2.1-1.4-4.5-2.5-7.1c-1-2.1-2-3.9-3-5.5c-5.2,4-11.1,9.3-17,16.3
					c-8.8,10.4-14.1,20.7-17.4,28.4"/>
				<path class="st1" d="M273.8,338c-2.8,0.4-7,1.2-11.7,3.2c-12.9,5.4-19.9,15-23,19.5c-6.3,9.1-8.9,18.1-10.1,24.1"/>
				<path class="st1" d="M264,340.1c-0.9-2.3-1.8-5.1-2.4-8.2c-1.1-5.4-1.2-10.2-1-13.9c-5.9,6.8-12.9,16.3-19.1,28.6
					c-7.3,14.6-10.7,28-12.4,37.7"/>
				<path class="st1" d="M260.3,318.5c-11.7,8.6-18.9,17.9-23,24c-5.3,8-11.8,18.1-12.3,32.1c-0.1,4.2,0.3,7.7,0.7,10"/>
				<path class="st1" d="M283.2,354.3c2.3,2,5.3,4.9,8.1,9c3.2,4.8,4.9,9.4,5.8,12.6"/>
				<path class="st1" d="M275.4,351.9c-0.2-1.1-0.6-2.5-1.4-3.9c-1.7-3.2-4.3-4.8-5.6-5.5"/>
				<path class="st1" d="M260,341.8c-0.1-1.5-0.6-4.5-2.5-7.5c-1.7-2.7-3.7-4.3-5-5.1"/>
				<path class="st1" d="M302.6,339.9c-0.9-1.1-2-2.3-3.5-3.5c-2.2-1.8-4.3-2.9-5.9-3.6"/>
				<path class="st1" d="M343.5,357.9c2.3,1.4,5.1,3.4,7.9,6.2c4,4,6.4,8,7.9,11"/>
				<line class="st1" x1="377.6" y1="391.1" x2="345.4" y2="391.1"/>
				<line class="st1" x1="378.1" y1="399.2" x2="346.7" y2="399.2"/>
				<line class="st1" x1="343.9" y1="384.5" x2="371.2" y2="384.5"/>
				<line class="st1" x1="306" y1="382.9" x2="266.7" y2="382.9"/>
				<line class="st1" x1="242.8" y1="390.3" x2="203.4" y2="390.3"/>
				<line class="st1" x1="181.9" y1="396.4" x2="153.6" y2="396.4"/>
				<path class="st1" d="M190.6,384.2c0.1-5.9,1.4-24.4,15.5-38c3.7-3.5,7.5-6,11-7.8c2.3,0.9,5.3,2.2,8.5,4.5
					c3.1,2.2,5.4,4.5,7,6.4"/>
			</g>
		</g>
		<g>
			<rect x="624.6" y="278" class="st0" width="67.1" height="126.1"/>
			<rect x="633.6" y="263.9" class="st0" width="49.1" height="14.1"/>
			<line class="st1" x1="629.8" y1="287.2" x2="687.7" y2="287.2"/>
			<line class="st1" x1="629.8" y1="303.5" x2="687.7" y2="303.5"/>
			<line class="st1" x1="629.8" y1="309.7" x2="687.7" y2="309.7"/>
			<line class="st1" x1="629.8" y1="316" x2="687.7" y2="316"/>
			<line class="st1" x1="629.8" y1="322.3" x2="687.7" y2="322.3"/>
			<line class="st1" x1="629.8" y1="328.6" x2="687.7" y2="328.6"/>
			<line class="st1" x1="629.8" y1="334.8" x2="687.7" y2="334.8"/>
			<line class="st1" x1="629.8" y1="341.1" x2="687.7" y2="341.1"/>
			<line class="st1" x1="629.8" y1="347.4" x2="687.7" y2="347.4"/>
			<line class="st1" x1="629.8" y1="353.7" x2="687.7" y2="353.7"/>
			<line class="st1" x1="629.8" y1="359.9" x2="687.7" y2="359.9"/>
			<line class="st1" x1="629.8" y1="366.2" x2="687.7" y2="366.2"/>
			<line class="st1" x1="629.8" y1="372.5" x2="687.7" y2="372.5"/>
			<line class="st1" x1="629.8" y1="378.8" x2="687.7" y2="378.8"/>
			<line class="st1" x1="629.8" y1="385" x2="687.7" y2="385"/>
			<line class="st1" x1="629.8" y1="391.3" x2="687.7" y2="391.3"/>
			<rect x="624.6" y="278" class="st1" width="67.1" height="126.1"/>
			<rect x="633.6" y="263.9" class="st1" width="49.1" height="14.1"/>
		</g>
		<g>
			<polygon class="st0" points="747.8,300.8 747.8,403.4 655,403.4 655,300.8 690.7,300.8 690.7,308.8 712,308.8 712,300.8 			"/>
			<line class="st1" x1="695.2" y1="312" x2="695.2" y2="400.2"/>
			<line class="st1" x1="699.3" y1="312" x2="699.3" y2="400.2"/>
			<line class="st1" x1="703.4" y1="312" x2="703.4" y2="400.2"/>
			<line class="st1" x1="707.5" y1="312" x2="707.5" y2="400.2"/>
			<line class="st1" x1="659.1" y1="305.3" x2="686.6" y2="305.3"/>
			<line class="st1" x1="659.1" y1="309.4" x2="686.6" y2="309.4"/>
			<line class="st1" x1="659.1" y1="317.7" x2="686.6" y2="317.7"/>
			<line class="st1" x1="659.1" y1="321.8" x2="686.6" y2="321.8"/>
			<line class="st1" x1="659.1" y1="325.9" x2="686.6" y2="325.9"/>
			<line class="st1" x1="659.1" y1="330" x2="686.6" y2="330"/>
			<line class="st1" x1="659.1" y1="334.1" x2="686.6" y2="334.1"/>
			<line class="st1" x1="659.1" y1="338.2" x2="686.6" y2="338.2"/>
			<line class="st1" x1="659.1" y1="342.4" x2="686.6" y2="342.4"/>
			<line class="st1" x1="659.1" y1="346.5" x2="686.6" y2="346.5"/>
			<line class="st1" x1="659.1" y1="354.7" x2="686.6" y2="354.7"/>
			<line class="st1" x1="659.1" y1="358.8" x2="686.6" y2="358.8"/>
			<line class="st1" x1="659.1" y1="362.9" x2="686.6" y2="362.9"/>
			<line class="st1" x1="659.1" y1="367" x2="686.6" y2="367"/>
			<line class="st1" x1="659.1" y1="371.2" x2="686.6" y2="371.2"/>
			<line class="st1" x1="659.1" y1="375.3" x2="686.6" y2="375.3"/>
			<line class="st1" x1="659.1" y1="379.4" x2="686.6" y2="379.4"/>
			<line class="st1" x1="659.1" y1="383.5" x2="686.6" y2="383.5"/>
			<line class="st1" x1="659.1" y1="389.7" x2="686.6" y2="389.7"/>
			<line class="st1" x1="659.1" y1="393.8" x2="686.6" y2="393.8"/>
			<line class="st1" x1="659.1" y1="397.9" x2="686.6" y2="397.9"/>
			<line class="st1" x1="716.2" y1="305.3" x2="743.7" y2="305.3"/>
			<line class="st1" x1="716.2" y1="309.4" x2="743.7" y2="309.4"/>
			<line class="st1" x1="716.2" y1="317.7" x2="743.7" y2="317.7"/>
			<line class="st1" x1="716.2" y1="321.8" x2="743.7" y2="321.8"/>
			<line class="st1" x1="716.2" y1="325.9" x2="743.7" y2="325.9"/>
			<line class="st1" x1="716.2" y1="330" x2="743.7" y2="330"/>
			<line class="st1" x1="716.2" y1="334.1" x2="743.7" y2="334.1"/>
			<line class="st1" x1="716.2" y1="338.2" x2="743.7" y2="338.2"/>
			<line class="st1" x1="716.2" y1="342.4" x2="743.7" y2="342.4"/>
			<line class="st1" x1="716.2" y1="346.5" x2="743.7" y2="346.5"/>
			<line class="st1" x1="716.2" y1="354.7" x2="743.7" y2="354.7"/>
			<line class="st1" x1="716.2" y1="358.8" x2="743.7" y2="358.8"/>
			<line class="st1" x1="716.2" y1="362.9" x2="743.7" y2="362.9"/>
			<line class="st1" x1="716.2" y1="367" x2="743.7" y2="367"/>
			<line class="st1" x1="716.2" y1="371.2" x2="743.7" y2="371.2"/>
			<line class="st1" x1="716.2" y1="375.3" x2="743.7" y2="375.3"/>
			<line class="st1" x1="716.2" y1="379.4" x2="743.7" y2="379.4"/>
			<line class="st1" x1="716.2" y1="383.5" x2="743.7" y2="383.5"/>
			<line class="st1" x1="716.2" y1="389.7" x2="743.7" y2="389.7"/>
			<line class="st1" x1="716.2" y1="393.8" x2="743.7" y2="393.8"/>
			<line class="st1" x1="716.2" y1="397.9" x2="743.7" y2="397.9"/>
			<rect x="655" y="300.8" class="st1" width="35.7" height="102.6"/>
			<rect x="712" y="300.8" class="st1" width="35.7" height="102.6"/>
			<rect x="690.7" y="308.8" class="st1" width="21.3" height="94.6"/>
		</g>
		<g>
			<path class="st0" d="M405.9,404.1h-41.3l10.1-28.8c0,0,0-22.2,0-22.4c0.3-5.6,4.9-10.1,10.6-10.1c5.7,0,10.3,4.4,10.6,10.1
				c0,0.2,0,22.4,0,22.4L405.9,404.1z"/>
			<path class="st0" d="M637.5,404.1h41.3l-10.1-28.8c0,0,0-22.2,0-22.4c-0.3-5.6-4.9-10.1-10.6-10.1c-5.7,0-10.3,4.4-10.6,10.1
				c0,0.2,0,22.4,0,22.4L637.5,404.1z"/>
			<rect x="395.8" y="371.3" class="st2" width="251.7" height="4"/>
			<path class="st2" d="M374.6,352.9L374.6,352.9c0,0.2,0,0.4,0,0.5V352.9z"/>
			<path class="st2" d="M395.8,352.9v0.5C395.8,353.3,395.8,353.1,395.8,352.9L395.8,352.9z"/>
			<path class="st1" d="M405.9,404.1h-41.3l10.1-28.8c0,0,0-22.2,0-22.4c0.3-5.6,4.9-10.1,10.6-10.1c5.7,0,10.3,4.4,10.6,10.1
				c0,0.2,0,22.4,0,22.4L405.9,404.1z"/>
			<path class="st1" d="M388.4,375.3H382c0,0,0-6.7,0-6.7c0.1-1.7,1.5-3,3.2-3c1.7,0,3.1,1.3,3.2,3
				C388.4,368.6,388.4,375.3,388.4,375.3z"/>
			<line class="st1" x1="428.6" y1="383" x2="412.2" y2="366.6"/>
			<line class="st1" x1="439" y1="374.1" x2="423.7" y2="358.9"/>
			<line class="st1" x1="450.4" y1="366.3" x2="436.1" y2="352"/>
			<line class="st1" x1="462.8" y1="359.5" x2="449.2" y2="346"/>
			<line class="st1" x1="476.2" y1="353.9" x2="463.1" y2="340.7"/>
			<line class="st1" x1="491.1" y1="349.6" x2="478.1" y2="336.5"/>
			<line class="st1" x1="507.6" y1="346.8" x2="494.1" y2="333.4"/>
			<line class="st1" x1="521.7" y1="341.7" x2="511.6" y2="331.7"/>
			<polyline class="st1" points="423.7,358.9 423.7,371.3 423.7,375.3 423.7,387.7 			"/>
			<polyline class="st1" points="436.1,352 436.1,370 436.1,373.8 436.1,374.8 			"/>
			<polyline class="st1" points="449.2,346 449.2,363.3 449.2,366.4 449.2,369.9 449.2,373.7 			"/>
			<polyline class="st1" points="463.1,340.7 463.1,356.4 463.1,359.3 463.1,369.8 463.1,373.7 			"/>
			<polyline class="st1" points="478.1,336.5 478.1,349.3 478.1,353.6 478.1,369.7 478.1,373.7 			"/>
			<polyline class="st1" points="494.1,333.4 494.1,342.3 494.1,349.5 494.1,369.7 494.1,373.7 			"/>
			<polyline class="st1" points="511.6,331.8 511.6,346.1 511.6,369.9 511.6,373.7 			"/>
			<polyline class="st1" points="521.7,331.4 521.7,341.4 521.7,345.6 521.7,369.9 521.7,373.7 			"/>
			<path class="st1" d="M631.2,366.6v34.8c-4.9-6.6-10.4-12.8-16.4-18.4c-3.3-3.1-6.7-6.1-10.4-8.8c-1.2-1-2.4-1.9-3.7-2.8
				c-2.5-1.8-5.1-3.5-7.7-5.1c-4-2.5-8.1-4.8-12.4-6.8c-4.4-2.2-8.9-4-13.5-5.7c-4.8-1.7-9.8-3.2-14.9-4.3
				c-5.3-1.3-10.8-2.2-16.5-2.7c-4.6-0.5-9.3-0.8-14.1-0.8c-4.8,0-9.5,0.2-14.1,0.8c-5.6,0.6-11.1,1.4-16.5,2.7
				c-5.1,1.1-10.1,2.6-14.9,4.3c-4.6,1.7-9.1,3.5-13.5,5.7c-4.3,2-8.4,4.3-12.4,6.8c-2.6,1.5-5.2,3.3-7.7,5.1
				c-1.2,0.9-2.5,1.8-3.7,2.8c-3.6,2.8-7.1,5.7-10.4,8.8c-6,5.6-11.5,11.8-16.4,18.4v-34.8c3.8-2.7,7.6-5.2,11.5-7.6
				c4-2.4,8.1-4.8,12.3-6.9c4.3-2.2,8.6-4.2,13.1-6.1c4.6-1.9,9.2-3.7,14-5.2c4.9-1.6,9.9-3,14.9-4.2c5.3-1.2,10.6-2.3,16.1-3.1
				c5.8-0.8,11.6-1.4,17.5-1.7c3.3-0.2,6.7-0.3,10.1-0.3c3.4,0,6.7,0.1,10.1,0.3c5.9,0.3,11.7,0.9,17.5,1.7
				c5.4,0.8,10.8,1.9,16.1,3.1c5.1,1.2,10.1,2.6,14.9,4.2c4.8,1.6,9.4,3.3,14,5.2c4.4,1.9,8.8,3.9,13.1,6.1
				c4.2,2.1,8.3,4.4,12.3,6.9C623.5,361.3,627.4,363.9,631.2,366.6z"/>
			<path class="st2" d="M647.5,352.9v0.5C647.5,353.3,647.5,353.1,647.5,352.9L647.5,352.9z"/>
			<path class="st1" d="M637.5,404.1h41.3l-10.1-28.8c0,0,0-22.2,0-22.4c-0.3-5.6-4.9-10.1-10.6-10.1c-5.7,0-10.3,4.4-10.6,10.1
				c0,0.2,0,22.4,0,22.4L637.5,404.1z"/>
			<path class="st1" d="M655,375.3h6.4c0,0,0-6.7,0-6.7c-0.1-1.7-1.5-3-3.2-3c-1.7,0-3.1,1.3-3.2,3C655,368.6,655,375.3,655,375.3z"
				/>
			<line class="st1" x1="631.2" y1="366.6" x2="614.8" y2="383"/>
			<line class="st1" x1="619.6" y1="358.9" x2="604.4" y2="374.1"/>
			<line class="st1" x1="607.3" y1="352" x2="593" y2="366.3"/>
			<line class="st1" x1="594.2" y1="346" x2="580.6" y2="359.5"/>
			<line class="st1" x1="580.2" y1="340.7" x2="567.1" y2="353.9"/>
			<line class="st1" x1="565.3" y1="336.5" x2="552.3" y2="349.6"/>
			<line class="st1" x1="549.2" y1="333.4" x2="535.8" y2="346.8"/>
			<line class="st1" x1="531.7" y1="331.7" x2="521.7" y2="341.7"/>
			<polyline class="st1" points="619.6,387.7 619.6,375.3 619.6,371.3 619.6,358.9 			"/>
			<polyline class="st1" points="607.3,374.8 607.3,373.8 607.3,370 607.3,352 			"/>
			<polyline class="st1" points="594.2,373.7 594.2,369.9 594.2,366.4 594.2,363.3 594.2,346 			"/>
			<polyline class="st1" points="580.2,373.7 580.2,369.8 580.2,359.3 580.2,356.4 580.2,340.7 			"/>
			<polyline class="st1" points="565.3,373.7 565.3,369.7 565.3,353.6 565.3,349.3 565.3,336.5 			"/>
			<polyline class="st1" points="549.2,373.7 549.2,369.7 549.2,349.5 549.2,342.3 549.2,333.4 			"/>
			<polyline class="st1" points="531.7,373.7 531.7,369.9 531.7,346.1 531.7,331.8 			"/>
		</g>
		<g>
			<g>
				<path class="st3" d="M66.3,207.5l-2.4,14.5c-0.1,0.9-0.9,1.5-1.8,1.5H43.7c-0.9,0-1.7-0.7-1.8-1.5l-2.4-14.5
					c-0.1-0.8,0.5-1.5,1.3-1.5h2.8v0l3.2-9.7l-1.2-4c-0.2-0.8,0.4-1.6,1.2-1.6h5v-24.3H54v24.3h5c0.9,0,1.5,0.8,1.2,1.6l-1.2,4
					l3.2,9.7v0h2.8C65.9,206.1,66.5,206.8,66.3,207.5z"/>
				<path class="st3" d="M49.8,307.2c0,0.3,0,0.6,0,0.9v-4L49.8,307.2z"/>
				<path class="st3" d="M49.8,307.2c0,0.3,0,0.6,0,0.9v-4L49.8,307.2z"/>
				<path class="st3" d="M49.8,239.1v0.6C49.8,239.5,49.8,239.3,49.8,239.1L49.8,239.1z"/>
				<path class="st0" d="M78.8,390.8c-6.3-13.9-13-32.5-16.4-55.2c-1.6-11-2.2-21.1-2.2-30.1c0-0.5,0-1,0-1.5V304h1.4v-2.5h-1.3
					c-0.8-7.3-1.5-15-2-22.9c-0.4-6.1-0.7-12.1-0.9-17.9v-0.1h0.8v-2.5h-0.9c-0.2-7,0.2-15.2,2-24.3c0.7-3.6,1.5-7,2.5-10.1h-3
					c-0.5,1.7-1,3.5-1.4,5.4c-0.8,3.6-1.2,6.9-1.3,9.9H56v-15.3l-3.1,0l-3.2,0v16c0-0.2,0-0.4,0-0.6c-0.1-3.1-0.5-6.5-1.3-10.1
					c-0.4-1.9-0.9-3.7-1.4-5.4h-3c0.9,3.1,1.8,6.5,2.5,10.1c1.8,9.1,2.2,17.4,2,24.4l-0.9,0v2.5h0.8v0c-0.2,5.8-0.5,11.8-0.8,17.9
					c-0.5,7.9-1.2,15.5-2,22.9l-1.4,0v2.5h1.4c0.1,9.4-0.5,20-2.2,31.6c-3.4,22.7-10.1,41.3-16.4,55.2h-4.6v13.3h60.9v-13.3H78.8z
					 M49.8,390.8H34.2c4.2-12.4,8.2-27.1,11.2-43.7c2.6-14.3,3.8-28.3,4.4-39.9V390.8z M56,390.8v-83.4c0,0,1.9,25.2,4.5,39.8
					c3,16.6,7,31.2,11.2,43.6H56z"/>
				<path class="st3" d="M60.2,304.1v1.5h0C60.2,305,60.2,304.5,60.2,304.1z"/>
			</g>
			<g>
				<path class="st1" d="M66.3,207.5l-2.4,14.6c-0.1,0.9-0.9,1.5-1.8,1.5H43.7c-0.9,0-1.7-0.6-1.8-1.5l-2.4-14.6
					c-0.1-0.8,0.5-1.5,1.3-1.5h24.3C65.9,206.1,66.5,206.8,66.3,207.5z"/>
				<polygon class="st1" points="62.3,206 43.6,206 46.7,196.4 59.1,196.4 				"/>
				<path class="st1" d="M60.2,192.3l-1.2,4H46.7l-1.1-4c-0.2-0.8,0.4-1.6,1.2-1.6H59C59.8,190.7,60.4,191.5,60.2,192.3z"/>
				<rect x="51.8" y="166.5" class="st1" width="2.1" height="24.3"/>
				<rect x="47.6" y="258.2" class="st1" width="10.6" height="2.5"/>
				<rect x="44.3" y="301.5" class="st1" width="17.3" height="2.5"/>
				<rect x="49.8" y="260.7" class="st1" width="6.2" height="40.9"/>
				<polygon class="st1" points="56,223.7 56,258.2 49.8,258.2 49.8,223.7 53,223.6 				"/>
				<rect x="22.4" y="390.8" class="st1" width="60.9" height="13.3"/>
				<rect x="49.8" y="304" class="st1" width="6.2" height="86.8"/>
				<path class="st1" d="M44,223.7c0.9,3.1,1.8,6.5,2.5,10.1c1.8,9.1,2.2,17.4,2,24.3"/>
				<path class="st1" d="M48.5,260.7c-0.2,5.8-0.5,11.8-0.9,17.9c-0.5,7.9-1.2,15.5-2,22.9"/>
				<path class="st1" d="M45.7,304c0.1,9.4-0.5,20-2.2,31.6c-3.4,22.7-10.1,41.4-16.4,55.2"/>
				<path class="st1" d="M34.2,390.8c4.2-12.4,8.2-27.1,11.2-43.7c2.6-14.6,3.9-28.1,4.4-39.9"/>
				<path class="st1" d="M47,223.7c0.5,1.7,1,3.5,1.4,5.4c1.1,5,1.4,9.5,1.4,13.3"/>
				<path class="st1" d="M61.8,223.7c-0.9,3.1-1.8,6.5-2.5,10.1c-1.8,9.1-2.2,17.3-2,24.3"/>
				<path class="st1" d="M57.4,260.7c0.2,5.8,0.5,11.8,0.9,17.9c0.5,7.9,1.2,15.5,2,22.9"/>
				<path class="st1" d="M60.2,304c-0.1,9.4,0.5,20,2.2,31.6c3.4,22.7,10.1,41.4,16.4,55.2"/>
				<path class="st1" d="M71.7,390.8c-4.2-12.4-8.2-27.1-11.2-43.7c-2.6-14.6-3.9-28.1-4.4-39.9"/>
				<path class="st1" d="M58.8,223.7c-0.5,1.7-1,3.5-1.4,5.4c-1.1,5-1.4,9.5-1.3,13.3"/>
				<line class="st1" x1="43.8" y1="209.2" x2="62.1" y2="209.2"/>
				<line class="st1" x1="45.9" y1="212.1" x2="59.9" y2="212.1"/>
				<line class="st1" x1="47.7" y1="215.1" x2="58.2" y2="215.1"/>
				<line class="st1" x1="48.7" y1="218" x2="57.2" y2="218"/>
				<line class="st1" x1="50.1" y1="220.9" x2="55.7" y2="220.9"/>
			</g>
		</g>
	</g>
	<g>
		<g>
			<path class="st3" d="M348.2,137.7l-1.4,2.4l2.6,6.1l-7.5,1.1c0,0-9.5-4.3-13.2-9.8C328.8,137.5,337.9,133,348.2,137.7z"/>
			<g>
				<path class="st4" d="M325,140.3c-0.1,1.6,0.7,2.9,1.7,2.9c1,0,17.6,1.8,17.9-2.5c0.4-4.3-16.8-3.2-17.7-3.2
					C325.9,137.5,325.1,138.7,325,140.3z"/>
				<path class="st2" d="M325.6,140.3c0,1.2,0.4,2.3,1,2.3c0.6,0,1.1-1,1.1-2.2c0-1.2-0.4-2.3-1-2.3
					C326.1,138.1,325.6,139.1,325.6,140.3z"/>
			</g>
			<path class="st3" d="M292.6,130.7c-0.2,2.5,6.7,5.3,10.4,5.6c3.7,0.3,43.5,2.3,55.5,0.9c12-1.5,26.3-5.6,26.3-5.6l3.4,2.5
				l2.5-0.3l0.3-4c0,0,2.5-3.4-0.3-6.8l0.2-2.5l2.9-15.9l-5.3,0.3l-13.3,15.6l-9.4,3.6c0,0-42.5-2.5-62.9,0.8c0,0-1.9,0.6-4.1,1.5
				c0,0,0,0,0,0s0,0,0,0c-1.2,0.5-2.4,1.1-3.5,1.7l0,0C293.8,129,292.6,129.9,292.6,130.7z"/>
			<path class="st2" d="M370.7,126.2c0,0-53.1-1.3-60.7-0.4l-0.1,0.9c0,0,57-0.2,60.9,0.2L370.7,126.2z"/>
			<path class="st3" d="M334.1,129.3c-2.2-0.5,36.5-26.2,36.5-26.2l4,1.6l-21,21.3l-0.4,4.9C353.2,130.9,348,132.7,334.1,129.3z"/>
			<path class="st3" d="M391.4,127l10.4-10.9l-4.8,0.2l-11,7.4l-6.3,3.3C379.8,127,384.9,128.1,391.4,127z"/>
			<g>
				<path class="st4" d="M327.2,129.4c-0.1,1.6,0.7,2.9,1.7,2.9c1,0,17.6,1.8,17.9-2.5c0.4-4.3-16.8-3.2-17.7-3.2
					C328.1,126.6,327.3,127.9,327.2,129.4z"/>
				<path class="st2" d="M327.8,129.5c0,1.2,0.4,2.3,1,2.3c0.6,0,1.1-1,1.1-2.2c0-1.2-0.4-2.3-1-2.3
					C328.4,127.2,327.8,128.2,327.8,129.5z"/>
			</g>
		</g>
		<g>
			<line class="st1" x1="398.6" y1="129.6" x2="428" y2="129.6"/>
			<line class="st1" x1="432.8" y1="129.6" x2="440" y2="129.6"/>
			<line class="st1" x1="445.7" y1="129.5" x2="451.6" y2="129.5"/>
			<line class="st1" x1="398.6" y1="104.7" x2="434.6" y2="104.7"/>
			<line class="st1" x1="440" y1="104.7" x2="445.7" y2="104.7"/>
			<line class="st1" x1="451.6" y1="104.7" x2="455.8" y2="104.7"/>
			<line class="st1" x1="407.4" y1="117.3" x2="453.2" y2="117.3"/>
			<line class="st1" x1="458.4" y1="117.3" x2="468.3" y2="117.3"/>
			<line class="st1" x1="473.7" y1="117.3" x2="487" y2="117.3"/>
			<line class="st1" x1="490.6" y1="117.3" x2="500.7" y2="117.3"/>
		</g>
		<path class="st2" d="M296.3,127.7c2.4-0.5,6.5-0.7,6.5-0.7l1.8-0.9c-1.1-0.1-4.7,0.1-4.9,0.1c0,0,0,0,0,0s0,0,0,0
			C298.6,126.6,297.3,127.1,296.3,127.7z"/>
	</g>
	<g>
		<line class="st3" x1="0" y1="416" x2="750" y2="416"/>
		<line class="st1" x1="39.4" y1="431" x2="109.7" y2="431"/>
		<line class="st1" x1="119.8" y1="431" x2="127.6" y2="431"/>
		<line class="st1" x1="78.8" y1="446" x2="209.5" y2="446"/>
		<line class="st1" x1="229.1" y1="446" x2="246.6" y2="446"/>
		<line class="st1" x1="260.3" y1="446" x2="271.9" y2="446"/>
		<line class="st1" x1="346.9" y1="473" x2="27.1" y2="473"/>
		<line class="st1" x1="361.5" y1="473" x2="370.8" y2="473"/>
		<line class="st1" x1="385.7" y1="473" x2="405.9" y2="473"/>
		<line class="st1" x1="444.5" y1="482" x2="570.6" y2="482"/>
		<line class="st1" x1="614.8" y1="449" x2="671.8" y2="449"/>
		<line class="st1" x1="686.6" y1="449" x2="704.1" y2="449"/>
		<line class="st1" x1="723" y1="473" x2="606.4" y2="473"/>
		<line class="st1" x1="580.6" y1="459" x2="546" y2="459"/>
		<line class="st1" x1="521.7" y1="459" x2="507.6" y2="459"/>
		<line class="st1" x1="512" y1="446" x2="440" y2="446"/>
		<line class="st1" x1="434.6" y1="446" x2="413.3" y2="446"/>
		<line class="st1" x1="401.8" y1="446" x2="393.9" y2="446"/>
		<line class="st1" x1="521.7" y1="431" x2="290" y2="431"/>
		<line class="st1" x1="201.2" y1="431" x2="246.6" y2="431"/>
		<line class="st1" x1="587.4" y1="431" x2="682.7" y2="431"/>
		<line class="st1" x1="723" y1="431" x2="712" y2="431"/>
		<line class="st1" x1="369.4" y1="459" x2="291.4" y2="459"/>
	</g>
	<g>
		<g>
			<path class="st1" d="M142,195.9c0,0.2,0,0.4,0,0.6H77.4c0-0.2,0-0.4,0-0.6c0-3.7,3-6.6,6.6-6.6c0-8.9,7.2-16,16-16
				c3.4,0,6.6,1.1,9.2,2.9c1.2-1.5,3.1-2.5,5.1-2.5c3.7,0,6.6,3,6.6,6.6c5.7,0,10.5,4.3,11.1,9.9c1-0.6,2.1-0.9,3.4-0.9
				C139,189.3,142,192.2,142,195.9z"/>
			<line class="st1" x1="147.1" y1="196.5" x2="157.6" y2="196.5"/>
			<line class="st1" x1="163.9" y1="196.5" x2="167.5" y2="196.5"/>
		</g>
		<g>
			<path class="st1" d="M341.7,184.5c0,0.1,0,0.2,0,0.3h-32.3c0-0.1,0-0.2,0-0.3c0-1.8,1.5-3.3,3.3-3.3c0-4.4,3.6-8,8-8
				c1.7,0,3.3,0.5,4.6,1.4c0.6-0.8,1.5-1.2,2.6-1.2c1.8,0,3.3,1.5,3.3,3.3c2.9,0,5.2,2.2,5.5,5c0.5-0.3,1.1-0.5,1.7-0.5
				C340.3,181.2,341.7,182.7,341.7,184.5z"/>
			<line class="st1" x1="344.3" y1="184.8" x2="349.6" y2="184.8"/>
			<line class="st1" x1="352.7" y1="184.8" x2="354.5" y2="184.8"/>
		</g>
		<g>
			<path class="st1" d="M639.6,123.3c0,0.2,0,0.4,0,0.6h64.5c0-0.2,0-0.4,0-0.6c0-3.7-3-6.6-6.6-6.6c0-8.9-7.2-16-16-16
				c-3.4,0-6.6,1.1-9.2,2.9c-1.2-1.5-3.1-2.5-5.1-2.5c-3.7,0-6.6,3-6.6,6.6c-5.7,0-10.5,4.3-11.1,9.9c-1-0.6-2.1-0.9-3.4-0.9
				C642.5,116.7,639.6,119.6,639.6,123.3z"/>
			<line class="st1" x1="634.4" y1="123.9" x2="623.9" y2="123.9"/>
			<line class="st1" x1="617.6" y1="123.9" x2="614" y2="123.9"/>
		</g>
		<g>
			<path class="st1" d="M458.4,228.5c0,0.2,0,0.4,0,0.6h64.5c0-0.2,0-0.4,0-0.6c0-3.7-3-6.6-6.6-6.6c0-8.9-7.2-16-16-16
				c-3.4,0-6.6,1.1-9.2,2.9c-1.2-1.5-3.1-2.5-5.1-2.5c-3.7,0-6.6,3-6.6,6.6c-5.7,0-10.5,4.3-11.1,9.9c-1-0.6-2.1-0.9-3.4-0.9
				C461.3,221.9,458.4,224.9,458.4,228.5z"/>
			<line class="st1" x1="453.2" y1="229.1" x2="442.7" y2="229.1"/>
			<line class="st1" x1="436.4" y1="229.1" x2="432.8" y2="229.1"/>
		</g>
		<g>
			<path class="st1" d="M620.8,225.4c0,0.1,0,0.3,0,0.4h42.3c0-0.1,0-0.3,0-0.4c0-2.4-1.9-4.3-4.3-4.3c0-5.8-4.7-10.5-10.5-10.5
				c-2.2,0-4.3,0.7-6,1.9c-0.8-1-2-1.6-3.4-1.6c-2.4,0-4.3,1.9-4.3,4.3c-3.8,0-6.9,2.9-7.2,6.5c-0.6-0.4-1.4-0.6-2.2-0.6
				C622.8,221,620.8,223,620.8,225.4z"/>
			<line class="st1" x1="617.5" y1="225.8" x2="610.6" y2="225.8"/>
			<line class="st1" x1="606.4" y1="225.8" x2="604.1" y2="225.8"/>
		</g>
		<g>
			<path class="st1" d="M326,79.7c0,0.1,0,0.3,0,0.4h42.3c0-0.1,0-0.3,0-0.4c0-2.4-1.9-4.3-4.3-4.3c0-5.8-4.7-10.5-10.5-10.5
				c-2.2,0-4.3,0.7-6,1.9c-0.8-1-2-1.6-3.4-1.6c-2.4,0-4.3,1.9-4.3,4.3c-3.8,0-6.9,2.9-7.2,6.5c-0.6-0.4-1.4-0.6-2.2-0.6
				C328,75.4,326,77.3,326,79.7z"/>
			<line class="st1" x1="322.7" y1="80.1" x2="315.8" y2="80.1"/>
			<line class="st1" x1="311.6" y1="80.1" x2="309.3" y2="80.1"/>
		</g>
		<g>
			<path class="st1" d="M188.2,90.5c0,0.7-0.1,1.3-0.2,2h-67.7c-0.1-0.6-0.2-1.3-0.2-2c0-5.2,4.2-9.4,9.4-9.4c2.4,0,4.5,0.9,6.2,2.3
				c2.3-3.7,6.4-6.2,11.1-6.2c0.7,0,1.4,0.1,2.1,0.2c0.8-2.1,2.9-3.6,5.2-3.6c1.3,0,2.4,0.4,3.4,1.1c2-1.6,4.5-2.5,7.2-2.5
				c5.6,0,10.2,3.9,11.2,9.2c1-0.3,2-0.5,3-0.5C184,81.2,188.2,85.4,188.2,90.5z"/>
			<line class="st1" x1="192.4" y1="92.5" x2="206.9" y2="92.5"/>
			<line class="st1" x1="210.3" y1="92.5" x2="214.5" y2="92.5"/>
			<line class="st1" x1="116.5" y1="92.5" x2="106.5" y2="92.5"/>
			<line class="st1" x1="101" y1="92.5" x2="97.8" y2="92.5"/>
			<line class="st1" x1="93.6" y1="92.5" x2="90.2" y2="92.5"/>
		</g>
		<g>
			<path class="st1" d="M636,46.1c0,0.7-0.1,1.3-0.2,2h-67.7c-0.1-0.6-0.2-1.3-0.2-2c0-5.2,4.2-9.4,9.4-9.4c2.4,0,4.5,0.9,6.2,2.3
				c2.3-3.7,6.4-6.2,11.1-6.2c0.7,0,1.4,0.1,2.1,0.2c0.8-2.1,2.9-3.6,5.2-3.6c1.3,0,2.4,0.4,3.4,1.1c2-1.6,4.5-2.5,7.2-2.5
				c5.6,0,10.2,3.9,11.2,9.2c1-0.3,2-0.5,3-0.5C631.8,36.8,636,40.9,636,46.1z"/>
			<line class="st1" x1="640.2" y1="48.1" x2="654.7" y2="48.1"/>
			<line class="st1" x1="658.1" y1="48.1" x2="662.3" y2="48.1"/>
			<line class="st1" x1="564.3" y1="48.1" x2="554.3" y2="48.1"/>
			<line class="st1" x1="548.8" y1="48.1" x2="545.6" y2="48.1"/>
			<line class="st1" x1="541.4" y1="48.1" x2="538" y2="48.1"/>
		</g>
		<g>
			<path class="st1" d="M477.9,170.9c0,0.7,0.1,1.3,0.2,2h67.7c0.1-0.6,0.2-1.3,0.2-2c0-5.2-4.2-9.4-9.4-9.4c-2.4,0-4.5,0.9-6.2,2.3
				c-2.3-3.7-6.4-6.2-11.1-6.2c-0.7,0-1.4,0.1-2.1,0.2c-0.8-2.1-2.9-3.6-5.2-3.6c-1.3,0-2.4,0.4-3.4,1.1c-2-1.6-4.5-2.5-7.2-2.5
				c-5.6,0-10.2,3.9-11.2,9.2c-1-0.3-2-0.5-3-0.5C482.1,161.5,477.9,165.7,477.9,170.9z"/>
			<line class="st1" x1="473.7" y1="172.9" x2="459.2" y2="172.9"/>
			<line class="st1" x1="455.8" y1="172.9" x2="451.6" y2="172.9"/>
			<line class="st1" x1="549.6" y1="172.9" x2="559.6" y2="172.9"/>
			<line class="st1" x1="565.1" y1="172.9" x2="568.3" y2="172.9"/>
			<line class="st1" x1="572.5" y1="172.9" x2="575.9" y2="172.9"/>
		</g>
		<g>
			<path class="st1" d="M185.3,152.8c0,0.4,0,0.8,0.1,1.2h41c0.1-0.4,0.1-0.8,0.1-1.2c0-3.1-2.5-5.7-5.7-5.7c-1.4,0-2.7,0.5-3.7,1.4
				c-1.4-2.2-3.9-3.8-6.7-3.8c-0.4,0-0.8,0-1.2,0.1c-0.5-1.3-1.7-2.2-3.2-2.2c-0.8,0-1.5,0.3-2,0.7c-1.2-1-2.7-1.5-4.4-1.5
				c-3.4,0-6.2,2.4-6.8,5.6c-0.6-0.2-1.2-0.3-1.8-0.3C187.8,147.2,185.3,149.7,185.3,152.8z"/>
			<line class="st1" x1="182.8" y1="154" x2="174" y2="154"/>
			<line class="st1" x1="171.9" y1="154" x2="169.4" y2="154"/>
			<line class="st1" x1="228.7" y1="154" x2="234.8" y2="154"/>
			<line class="st1" x1="238.1" y1="154" x2="240.1" y2="154"/>
			<line class="st1" x1="242.6" y1="154" x2="244.7" y2="154"/>
		</g>
		<g>
			<path class="st1" d="M456.9,64.2c0,0.4,0,0.8-0.1,1.2h-41c-0.1-0.4-0.1-0.8-0.1-1.2c0-3.1,2.5-5.7,5.7-5.7c1.4,0,2.7,0.5,3.7,1.4
				c1.4-2.2,3.9-3.8,6.7-3.8c0.4,0,0.8,0,1.2,0.1c0.5-1.3,1.7-2.2,3.2-2.2c0.8,0,1.5,0.3,2,0.7c1.2-1,2.7-1.5,4.4-1.5
				c3.4,0,6.2,2.4,6.8,5.6c0.6-0.2,1.2-0.3,1.8-0.3C454.4,58.5,456.9,61.1,456.9,64.2z"/>
			<line class="st1" x1="459.5" y1="65.4" x2="468.3" y2="65.4"/>
			<line class="st1" x1="470.3" y1="65.4" x2="472.9" y2="65.4"/>
			<line class="st1" x1="413.5" y1="65.4" x2="407.4" y2="65.4"/>
			<line class="st1" x1="404.1" y1="65.4" x2="402.1" y2="65.4"/>
			<line class="st1" x1="399.6" y1="65.4" x2="397.5" y2="65.4"/>
		</g>
	</g>
</g>
</svg>
