<?xml version="1.0" encoding="utf-8"?>
<!-- Generator: Adobe Illustrator 25.3.0, SVG Export Plug-In . SVG Version: 6.00 Build 0)  -->
<svg version="1.1" id="Layer_1" xmlns="http://www.w3.org/2000/svg" xmlns:xlink="http://www.w3.org/1999/xlink" x="0px" y="0px"
	 viewBox="0 0 3060.8 827.2" style="enable-background:new 0 0 3060.8 827.2;" xml:space="preserve">
<style type="text/css">
	.st0{fill:#FFCC00;}
</style>
<g>
	<path class="st0" d="M418.2,462.2c100.5-168.5,38.9-392.1,38.9-392.1s-6.5,149.1-259.3,304.6C-55,530.3,48.7,757.2,48.7,757.2
		c64.4-87.5,61.3-85.9,517.5-85.9l209-209H418.2z M298.1,533.5C221.4,591.9,129.6,617.8,54,719.3c0,0,4.3-114.5,170.7-235.5
		c97.5-70.9,207.4-207.4,233.3-315.5C458,168.4,490.8,386.9,298.1,533.5z"/>
	<g>
		<path class="st0" d="M883.4,168.4l-209,209c43.4,0,90.7,0,93.9,0l209-209H883.4z"/>
		<path class="st0" d="M993.6,186.2l-47,47l144.2,144.2c3.2,0,50.5-0.1,93.9,0L993.6,186.2z"/>
		<rect x="902.8" y="311" class="st0" width="63.7" height="63.7"/>
	</g>
	<g>
		<path class="st0" d="M887.7,572.7v90.1h34.7v8.2h-107v-8.2h34.1V464.5h-34.1v-8.2h110.6c25,0,43.8,5.6,56.4,16.7
			c12.6,11.1,19,24.8,19,41c0,16.7-6.4,30.6-19.1,41.9c-12.8,11.3-34,16.9-63.6,16.9H887.7z M887.7,464.5v99.9h20.7
			c10.8,0,19.7-0.9,26.9-2.7c7.2-1.8,13.3-6.6,18.5-14.4c5.2-7.8,7.8-19.9,7.8-36.2c0-14.4-2.3-25-6.8-31.8
			c-4.5-6.8-9.9-10.9-16.1-12.5c-6.2-1.5-13.9-2.3-23.1-2.3H887.7z"/>
		<path class="st0" d="M1046.7,662.8V553.3h-25.9v-8.2h26.3c13.5,0,23.7-0.7,30.7-2.1v30.3h0.6c7.5-20.2,18.5-30.3,33.1-30.3
			c6.4,0,11.6,1.9,15.5,5.8c3.9,3.9,5.8,8.6,5.8,14.2c0,5.1-1.6,9.3-4.7,12.4c-3.2,3.1-7.2,4.7-12.2,4.7c-9.2,0-13.8-4.6-13.8-13.8
			l0.6-6.9c0-2.5-1.1-3.7-3.4-3.7c-3.5,0-8,4.8-13.5,14.3c-5.4,9.5-8.2,24-8.2,43.6v49.2h26.6v8.2h-83.6v-8.2H1046.7z"/>
		<path class="st0" d="M1234.5,599.1v-16.3c0-13.3-1.1-22.1-3.3-26.3c-2.2-4.2-8.1-6.2-17.7-6.2c-17.3,0-25.9,3.3-25.9,9.9
			c0,1.9,0.7,4,2.2,6.3c1.4,2.3,2.2,5,2.2,8.1c0,4.4-1.4,7.7-4.3,10c-2.9,2.3-6.1,3.4-9.8,3.4c-4.7,0-8.3-1.5-10.9-4.4
			c-2.6-2.9-3.8-6.4-3.8-10.3c0-8.5,5-15.7,15-21.5c10-5.8,23.9-8.7,41.7-8.7c14.3,0,24.8,1.7,31.4,5c6.6,3.3,10.7,7.4,12.2,12.3
			c1.5,4.9,2.3,11.8,2.3,20.8v58.9c0,8.6,0.6,14,1.8,16.2c1.2,2.1,3.1,3.2,5.7,3.2c3.8,0,7.6-2.6,11.2-7.8h3.8
			c-2.8,15.6-11.8,23.4-27.2,23.4c-14.8,0-23.7-8.5-26.6-25.6c-12.5,17.1-27.1,25.6-43.9,25.6c-11.1,0-20-3-26.6-9
			c-6.6-6-9.9-13.4-9.9-22.2C1154.1,616.6,1180.9,601.7,1234.5,599.1z M1234.5,623.8v-17.3c-19.7,0.7-32.8,3.7-39.1,8.9
			c-6.3,5.2-9.4,12.7-9.4,22.5c0,7.2,1.9,12.7,5.7,16.7c3.8,4,8.1,5.9,13,5.9c6.3,0,12-2.1,17.1-6.3c5.1-4.2,8.5-8.5,10.2-12.7
			C1233.6,637.1,1234.5,631.2,1234.5,623.8z"/>
		<path class="st0" d="M1332.6,662.8V553.3h-22.6v-8.2h14.1c16.7,0,29.9-0.7,39.7-2.1V574h0.6c8.4-20.6,23.5-30.9,45.2-30.9
			c23.6,0,36.6,10.9,39.1,32.8h0.6c9.3-21.9,24.7-32.8,46.3-32.8c9.6,0,17.7,2.4,24.3,7.2s10.6,10.4,12.2,16.7
			c1.5,6.3,2.3,16.7,2.3,31.2v64.7h22.3v8.2h-74.5v-8.2h21v-79.1c0-12.5-0.7-21.1-2.2-25.8c-1.4-4.7-5.3-7-11.6-7
			c-8.6,0-17.5,4.9-26.7,14.7c-9.1,9.8-13.7,28.3-13.7,55.6v41.6h20.7v8.2h-72.5v-8.2h20.8v-62c0-24.1-0.9-38.5-2.6-43.1
			c-1.8-4.6-6-6.9-12.6-6.9c-9.1,0-17,4-23.8,12c-6.8,8-11,15.8-12.6,23.4c-1.7,7.6-2.5,19.6-2.5,36.2v40.4h20.7v8.2h-74.5v-8.2
			H1332.6z"/>
		<path class="st0" d="M1708.9,545.2v117.7h21.6v8.2h-21.6c-16.7,0-27.2,0.6-31.5,1.9v-29.8h-0.6c-9.6,19.9-24.7,29.8-45.3,29.8
			c-11.8,0-21.4-3.1-28.6-9.4c-7.2-6.2-10.8-19.4-10.8-39.5v-70.8h-23.2v-8.2h54.4v84.5c0,13.2,0.8,22.4,2.4,27.5
			c1.6,5.1,5.7,7.6,12.3,7.6c9.8,0,18.9-5.3,27.2-15.8c8.3-10.5,12.5-26.3,12.5-47.5v-48.2h-25.6v-8.2H1708.9z"/>
		<path class="st0" d="M1770.6,662.8V464.5h-23.1v-8.2h21.3c10.6,0,21.5-0.8,32.8-2.4v209h20.7v8.2h-74.8v-8.2H1770.6z M1858,662.8
			l-52.7-62l51.1-47.6h-26.9v-8.2h67.6v8.2h-30.4l-35.5,32.8l66,76.7h14.1v8.2h-76.1v-8.2H1858z"/>
		<path class="st0" d="M1948.1,662.8V464.5h-25v-8.2h24c14.4,0,25.1-0.8,32.2-2.4v119.4h0.6c10.7-20.2,25.6-30.3,44.8-30.3
			c7.8,0,15.4,2,22.7,6c7.4,4,12.1,9.7,14.2,17.2c2.1,7.5,3.1,19.4,3.1,35.9v60.7h20.7v8.2h-72.4v-8.2h20.7v-63.7
			c0-17.3-0.5-29.6-1.4-36.9c-1-7.3-5.8-11-14.4-11c-9.3,0-17.1,4-23.5,11.9c-6.4,8-10.5,16.1-12.3,24.3c-1.9,8.3-2.8,21.8-2.8,40.6
			v34.7h20.7v8.2h-74.5v-8.2H1948.1z"/>
		<path class="st0" d="M2209.5,662.8V464.5h-25v-8.2h24c14.4,0,25.1-0.8,32.2-2.4v119.4h0.6c10.7-20.2,25.6-30.3,44.8-30.3
			c7.8,0,15.4,2,22.7,6c7.4,4,12.1,9.7,14.2,17.2c2.1,7.5,3.1,19.4,3.1,35.9v60.7h20.7v8.2h-72.4v-8.2h20.7v-63.7
			c0-17.3-0.5-29.6-1.4-36.9c-1-7.3-5.8-11-14.4-11c-9.3,0-17.1,4-23.5,11.9c-6.4,8-10.5,16.1-12.3,24.3c-1.9,8.3-2.8,21.8-2.8,40.6
			v34.7h20.7v8.2h-74.5v-8.2H2209.5z"/>
		<path class="st0" d="M2370.1,607.8c0-18.5,6.4-34.2,19.1-47.2c12.7-13,28.4-19.5,47.2-19.5c18.4,0,33.9,6.2,46.7,18.7
			c12.8,12.4,19.1,28,19.1,46.7c0,19.1-6.6,35.3-19.9,48.6c-13.2,13.3-28.9,19.9-46.9,19.9c-17.7,0-33-6.5-46-19.5
			C2376.5,642.6,2370.1,626.7,2370.1,607.8z M2466.1,607.8c0-19.6-0.7-32.6-2-38.9c-1.3-6.3-4.3-11.3-9-15c-4.6-3.7-11-5.5-19.1-5.5
			c-7.7,0-14,1.9-19,5.7c-5,3.8-8,8.8-9.2,15.1c-1.2,6.3-1.8,19.3-1.8,38.9c0,19.8,0.7,32.8,2.2,39.2s4.6,11.4,9.4,15.1
			c4.9,3.6,11,5.4,18.3,5.4c7.5,0,13.7-1.8,18.7-5.5c5-3.7,8.1-8.8,9.4-15.4C2465.5,640.3,2466.1,627.3,2466.1,607.8z"/>
		<path class="st0" d="M2550.8,662.8V553.3h-22.6v-8.2h14.1c16.7,0,29.9-0.7,39.7-2.1V574h0.6c8.4-20.6,23.5-30.9,45.2-30.9
			c23.6,0,36.6,10.9,39.1,32.8h0.6c9.3-21.9,24.7-32.8,46.3-32.8c9.6,0,17.7,2.4,24.3,7.2s10.6,10.4,12.2,16.7
			c1.5,6.3,2.3,16.7,2.3,31.2v64.7h22.3v8.2h-74.5v-8.2h21v-79.1c0-12.5-0.7-21.1-2.2-25.8c-1.4-4.7-5.3-7-11.6-7
			c-8.6,0-17.5,4.9-26.7,14.7s-13.7,28.3-13.7,55.6v41.6h20.7v8.2h-72.5v-8.2h20.8v-62c0-24.1-0.9-38.5-2.6-43.1
			c-1.8-4.6-6-6.9-12.6-6.9c-9.1,0-17,4-23.8,12c-6.8,8-11,15.8-12.6,23.4c-1.7,7.6-2.5,19.6-2.5,36.2v40.4h20.7v8.2h-74.5v-8.2
			H2550.8z"/>
		<path class="st0" d="M2912.2,598.5h-81c-0.7,31.6,1,51.1,5.3,58.4c4.3,7.3,11.9,11,22.9,11c22.6,0,37.9-13.1,46-39.4h6.9
			c-3.5,15.9-10.2,27.6-20,35.2c-9.8,7.6-20.8,11.4-32.8,11.4c-17.2,0-32.1-6.4-44.8-19.1c-12.7-12.8-19.1-28.8-19.1-48.1
			c0-18.8,6.2-34.6,18.7-47.4c12.4-12.8,26.9-19.2,43.3-19.2c14.3,0,26.8,5.1,37.5,15.2C2905.7,566.5,2911.5,580.5,2912.2,598.5z
			 M2831.2,591.3h46.6c0.9-7.6,1.3-13.3,1.3-17.3c0-17.1-7.7-25.6-23.2-25.6c-7.7,0-13.7,2.1-18.1,6.2c-4.4,4.1-6.6,9.7-6.6,16.7
			V591.3z"/>
		<path class="st0" d="M3023,543.7v35.9h-6.6c-4.9-20.8-16.9-31.2-35.9-31.2c-8.2,0-15.1,2.2-20.6,6.5c-5.5,4.3-8.2,9.3-8.2,14.8
			c0,4.7,1.9,8.4,5.8,11.1c3.9,2.7,13.1,5,27.6,7c31.9,4,47.9,18.5,47.9,43.6c0,12.5-4.1,22.9-12.4,31.2
			c-8.3,8.3-18.6,12.5-30.8,12.5c-12.1,0-23.8-5-35.1-14.9l-11.2,9.6h-5.6v-47.2h5.6c9.2,30.2,24.6,45.3,46.3,45.3
			c8.2,0,15.7-2.6,22.4-7.8c6.7-5.2,10.1-11.4,10.1-18.4c0-5.9-2-10.3-6-13.3c-4-3-14.8-5.8-32.4-8.3c-30-4.4-45-17.7-45-40
			c0-11,4-20.2,12.1-27.6c8.1-7.4,17.9-11.1,29.5-11.1c12.3,0,22.6,4.1,30.9,12.2c2.1-2.2,4.3-5.4,6.6-9.6H3023z"/>
	</g>
</g>
</svg>
